<svg width="18" height="18" viewBox="0 0 18 18" fill="none" xmlns="http://www.w3.org/2000/svg">
<path d="M15.0233 7.14773L9.39828 12.7727C9.34604 12.825 9.284 12.8665 9.21572 12.8948C9.14743 12.9231 9.07423 12.9377 9.00031 12.9377C8.92639 12.9377 8.8532 12.9231 8.78491 12.8948C8.71662 12.8665 8.65458 12.825 8.60234 12.7727L2.97734 7.14773C2.8718 7.04218 2.8125 6.89903 2.8125 6.74976C2.8125 6.6005 2.8718 6.45734 2.97734 6.35179C3.08289 6.24625 3.22605 6.18695 3.37531 6.18695C3.52458 6.18695 3.66773 6.24625 3.77328 6.35179L9.00031 11.5795L14.2273 6.35179C14.2796 6.29953 14.3417 6.25808 14.4099 6.22979C14.4782 6.20151 14.5514 6.18695 14.6253 6.18695C14.6992 6.18695 14.7724 6.20151 14.8407 6.22979C14.909 6.25808 14.971 6.29953 15.0233 6.35179C15.0755 6.40406 15.117 6.4661 15.1453 6.53438C15.1736 6.60267 15.1881 6.67585 15.1881 6.74976C15.1881 6.82367 15.1736 6.89686 15.1453 6.96514C15.117 7.03343 15.0755 7.09547 15.0233 7.14773Z" fill="#343330"/>
</svg>
