<svg width="44" height="44" viewBox="0 0 44 44" fill="none" xmlns="http://www.w3.org/2000/svg">
<rect width="44" height="44" rx="4" fill="#E7F0FF"/>
<path d="M30.8039 15.943C30.2859 15.3889 29.6597 14.9472 28.9639 14.6452C28.2682 14.3432 27.5178 14.1874 26.7594 14.1874C26.0009 14.1874 25.2506 14.3432 24.5548 14.6452C23.8591 14.9472 23.2328 15.3889 22.7148 15.943C22.4474 16.2243 22.208 16.5309 22 16.8586C21.792 16.5309 21.5526 16.2243 21.2852 15.943C20.7672 15.3889 20.1409 14.9472 19.4452 14.6452C18.7494 14.3432 17.9991 14.1874 17.2406 14.1874C16.4822 14.1874 15.7318 14.3432 15.0361 14.6452C14.3403 14.9472 13.7141 15.3889 13.1961 15.943C13.0921 16.0522 13.0159 16.1849 12.9741 16.3298C12.9323 16.4747 12.9261 16.6276 12.956 16.7755C12.9859 16.9233 13.051 17.0618 13.1459 17.179C13.2407 17.2963 13.3625 17.389 13.5008 17.4492L17.1562 19.0406C15.8472 19.5955 14.7829 20.6049 14.1594 21.8826C13.5359 23.1604 13.3952 24.6204 13.7633 25.9937C13.8035 26.142 13.8795 26.2782 13.9846 26.3902C14.0898 26.5022 14.2209 26.5866 14.3663 26.6361C14.5118 26.6856 14.6672 26.6985 14.8188 26.6738C14.9704 26.6491 15.1137 26.5876 15.2359 26.4945L21.0625 22.0586V29.5C21.0625 29.7486 21.1613 29.9871 21.3371 30.1629C21.5129 30.3387 21.7514 30.4375 22 30.4375C22.2486 30.4375 22.4871 30.3387 22.6629 30.1629C22.8387 29.9871 22.9375 29.7486 22.9375 29.5V22.0586L28.7609 26.4953C28.8832 26.5884 29.0264 26.6499 29.1781 26.6746C29.3297 26.6993 29.4851 26.6863 29.6306 26.6369C29.776 26.5874 29.9071 26.503 30.0122 26.391C30.1174 26.2789 30.1934 26.1428 30.2336 25.9945C30.6017 24.6212 30.461 23.1612 29.8375 21.8834C29.214 20.6056 28.1496 19.5963 26.8406 19.0414L30.4992 17.45C30.6375 17.3898 30.7593 17.2971 30.8541 17.1798C30.9489 17.0625 31.0141 16.9241 31.044 16.7762C31.0739 16.6284 31.0677 16.4755 31.0259 16.3306C30.9841 16.1857 30.9079 16.053 30.8039 15.9437V15.943ZM17.2406 16.0625C17.7447 16.0637 18.2431 16.1683 18.7051 16.3699C19.1671 16.5715 19.5828 16.8657 19.9266 17.2344C20.2928 17.6199 20.5805 18.0732 20.7734 18.5687L15.75 16.3828C16.2185 16.1713 16.7266 16.0621 17.2406 16.0625ZM15.468 23.9648C15.5712 23.1676 15.9098 22.4193 16.4406 21.8156C16.9714 21.2119 17.6702 20.7802 18.4477 20.5758C18.7933 20.484 19.1494 20.4375 19.507 20.4375C19.69 20.437 19.8727 20.4493 20.0539 20.4742L15.468 23.9648ZM28.0156 22.4539C28.2866 22.9179 28.4612 23.4318 28.5289 23.9648L23.9531 20.4734C24.4887 20.401 25.0334 20.4358 25.5555 20.5758C26.069 20.7113 26.5507 20.9471 26.9729 21.2694C27.3951 21.5917 27.7495 21.9942 28.0156 22.4539ZM23.2266 18.5687C23.4195 18.0732 23.7072 17.6199 24.0734 17.2344C24.4172 16.8657 24.8329 16.5715 25.2949 16.3699C25.7569 16.1683 26.2553 16.0637 26.7594 16.0625C27.2734 16.0621 27.7815 16.1713 28.25 16.3828L23.2266 18.5687Z" fill="#0D6EFD"/>
</svg>
