<svg width="151" height="150" viewBox="0 0 151 150" fill="none" xmlns="http://www.w3.org/2000/svg">
<g clip-path="url(#clip0_1927_418)">
<path d="M75.5 150C116.921 150 150.5 116.421 150.5 75C150.5 33.5786 116.921 0 75.5 0C34.0786 0 0.5 33.5786 0.5 75C0.5 116.421 34.0786 150 75.5 150Z" fill="#E7F0FF"/>
<path d="M47.6623 51.3051H-5.4231C-5.4231 51.3051 -7.31613 51.3051 -6.08248 49.4759C-4.21498 46.6895 -1.58176 39.9725 5.23738 40.4489C13.0392 40.9934 14.7067 43.8521 14.7067 43.9287C14.7067 43.9287 15.8978 37.5605 22.5341 38.0241C29.1703 38.4836 30.6677 43.4735 30.6677 43.4735C30.6677 43.4735 33.3945 40.7339 38.0824 42.1165C40.6901 42.8864 43.2382 45.4218 42.7532 47.8083C44.9313 46.9575 44.8164 46.6427 47.1348 47.2042C52.129 48.4124 47.6623 51.3093 47.6623 51.3093V51.3051Z" fill="white"/>
<path d="M157.662 56.3051H104.577C104.577 56.3051 102.684 56.3051 103.918 54.4759C105.785 51.6895 108.418 44.9725 115.237 45.4489C123.039 45.9934 124.707 48.8521 124.707 48.9287C124.707 48.9287 125.898 42.5605 132.534 43.0241C139.17 43.4836 140.668 48.4735 140.668 48.4735C140.668 48.4735 143.394 45.7339 148.082 47.1165C150.69 47.8864 153.238 50.4218 152.753 52.8083C154.931 51.9575 154.816 51.6427 157.135 52.2042C162.129 53.4124 157.662 56.3093 157.662 56.3093V56.3051Z" fill="white"/>
<path d="M152.55 120.94C152.55 123.25 152.44 125.52 152.21 127.77L148.39 125.92L76.77 91.18L61.41 83.73C57.14 81.65 53.41 78.68 50.47 75.05C48.22 72.28 46.42 69.13 45.17 65.72L36.5 42.01C38.81 42.01 41.04 42.55 43.07 43.54L43.1 43.56C45.01 44.49 46.72 45.86 48.09 47.55L55.03 56.17C59.56 61.79 65.24 66.31 71.65 69.47C75.13 71.18 78.85 72.48 82.7 73.34L152.54 88.62V120.94H152.55Z" fill="#86B7FE"/>
<path d="M58.85 98.21C59 99.71 60.23 100.87 61.74 100.91L99.04 102L76.76 91.17L60.29 96.05C59.36 96.33 58.75 97.23 58.84 98.2L58.85 98.21Z" fill="white"/>
<path d="M152.21 127.77L148.39 125.92L120.17 112.29L97.86 119.18H97.84L95.82 119.81C94.46 120.21 93.57 121.52 93.71 122.94C93.92 125.12 95.72 126.82 97.93 126.88L152.16 128.36C152.19 128.16 152.21 127.97 152.22 127.79" fill="white"/>
<path d="M58.84 72.73L50.47 75.04C48.22 72.27 46.42 69.13 45.17 65.71L36.5 42C38.8 42 41.04 42.53 43.07 43.53L43.11 43.55L58.85 72.73H58.84Z" fill="#0D6EFD"/>
<path d="M152.55 88.61V109.09L58.85 72.73L71.66 69.46C75.14 71.17 78.86 72.47 82.71 73.33L152.55 88.61Z" fill="white"/>
<path d="M97.84 119.17C97.98 119.17 136.52 120.22 136.52 120.22L120.17 112.27L97.84 119.16V119.17Z" fill="#0D6EFD"/>
<path d="M62.46 95.42C62.51 95.42 88.6 96.96 88.6 96.96L76.7 91.18L62.46 95.42Z" fill="#0D6EFD"/>
</g>
<defs>
<clipPath id="clip0_1927_418">
<rect x="0.5" width="150" height="150" rx="75" fill="white"/>
</clipPath>
</defs>
</svg>
